Sprint_04500001_forces_filt12Hz.mot
version=1
nRows=43
nColumns=19
inDegrees=yes
endheader
time	R_ground_force_vx	R_ground_force_vy	R_ground_force_vz	R_ground_force_px	R_ground_force_py	R_ground_force_pz	R_ground_torque_x	R_ground_torque_y	R_ground_torque_z	L_ground_force_vx	L_ground_force_vy	L_ground_force_vz	L_ground_force_px	L_ground_force_py	L_ground_force_pz	L_ground_torque_x	L_ground_torque_y	L_ground_torque_z	
0.000000	  0.000000	  0.000000	  0.000000	  0.299405	  0.000000	 -0.268615	  0.000000	  0.000000	  0.000000	  0.000000	  0.000000	  0.000000	  0.742270	  0.000000	 -0.344127	  0.000000	  0.000000	  0.000000
0.000500	  0.000000	  0.000000	  0.000000	  0.298670	 -0.000000	 -0.268312	  0.000000	  0.000000	  0.000000	  0.000000	  0.000000	  0.000000	  0.744619	 -0.000000	 -0.344026	  0.000000	  0.000000	  0.000000
0.001000	  0.000000	  0.000000	  0.000000	  0.297935	 -0.000000	 -0.268008	  0.000000	  0.000000	  0.000000	  0.000000	  0.000000	  0.000000	  0.746969	 -0.000000	 -0.343924	  0.000000	  0.000000	  0.000000
0.001500	  0.000000	  0.000000	  0.000000	  0.297200	 -0.000000	 -0.267705	  0.000000	  0.000000	  0.000000	  0.000000	  0.000000	  0.000000	  0.749318	 -0.000000	 -0.343823	  0.000000	  0.000000	  0.000000
0.002000	  0.000000	  0.000000	  0.000000	  0.296465	 -0.000000	 -0.267402	  0.000000	  0.000000	  0.000000	  0.000000	  0.000000	  0.000000	  0.751667	 -0.000000	 -0.343721	  0.000000	  0.000000	  0.000000
0.002500	  0.000000	  0.000000	  0.000000	  0.295729	  0.000000	 -0.267099	  0.000000	  0.000000	  0.000000	  0.000000	  0.000000	  0.000000	  0.754017	  0.000000	 -0.343620	  0.000000	  0.000000	  0.000000
0.003000	  0.000000	  0.000000	  0.000000	  0.294994	  0.000000	 -0.266795	  0.000000	  0.000000	  0.000000	  0.000000	  0.000000	  0.000000	  0.756366	  0.000000	 -0.343518	  0.000000	  0.000000	  0.000000
0.003500	  0.000000	  0.000000	  0.000000	  0.294259	  0.000000	 -0.266492	  0.000000	  0.000000	  0.000000	  0.000000	  0.000000	  0.000000	  0.758715	  0.000000	 -0.343417	  0.000000	  0.000000	  0.000000
0.004000	  0.000000	  0.000000	  0.000000	  0.293524	  0.000000	 -0.266189	  0.000000	  0.000000	  0.000000	  0.000000	  0.000000	  0.000000	  0.761064	  0.000000	 -0.343315	  0.000000	  0.000000	  0.000000
0.004500	  0.000000	  0.000000	  0.000000	  0.292789	  0.000000	 -0.265885	  0.000000	  0.000000	  0.000000	  0.000000	  0.000000	  0.000000	  0.763414	  0.000000	 -0.343214	  0.000000	  0.000000	  0.000000
0.005000	  0.000000	  0.000000	  0.000000	  0.292054	  0.000000	 -0.265582	  0.000000	  0.000000	  0.000000	  0.000000	  0.000000	  0.000000	  0.765763	  0.000000	 -0.343112	  0.000000	  0.000000	  0.000000
0.005500	  0.000000	  0.000000	  0.000000	  0.291338	  0.000000	 -0.265277	  0.000000	  0.000000	  0.000000	  0.000000	  0.000000	  0.000000	  0.768181	  0.000000	 -0.343068	  0.000000	  0.000000	  0.000000
0.006000	  0.000000	  0.000000	  0.000000	  0.290622	  0.000000	 -0.264972	  0.000000	  0.000000	  0.000000	  0.000000	  0.000000	  0.000000	  0.770599	  0.000000	 -0.343024	  0.000000	  0.000000	  0.000000
0.006500	  0.000000	  0.000000	  0.000000	  0.289907	  0.000000	 -0.264667	  0.000000	  0.000000	  0.000000	  0.000000	  0.000000	  0.000000	  0.773016	  0.000000	 -0.342980	  0.000000	  0.000000	  0.000000
0.007000	  0.000000	  0.000000	  0.000000	  0.289191	  0.000000	 -0.264362	  0.000000	  0.000000	  0.000000	  0.000000	  0.000000	  0.000000	  0.775434	  0.000000	 -0.342936	  0.000000	  0.000000	  0.000000
0.007500	  0.000000	  0.000000	  0.000000	  0.288475	  0.000000	 -0.264057	  0.000000	  0.000000	  0.000000	  0.000000	  0.000000	  0.000000	  0.777852	  0.000000	 -0.342892	  0.000000	  0.000000	  0.000000
0.008000	  0.000000	  0.000000	  0.000000	  0.287759	  0.000000	 -0.263752	  0.000000	  0.000000	  0.000000	  0.000000	  0.000000	  0.000000	  0.780270	  0.000000	 -0.342848	  0.000000	  0.000000	  0.000000
0.008500	  0.000000	  0.000000	  0.000000	  0.287043	  0.000000	 -0.263447	  0.000000	  0.000000	  0.000000	  0.000000	  0.000000	  0.000000	  0.782688	  0.000000	 -0.342804	  0.000000	  0.000000	  0.000000
0.009000	  0.000000	  0.000000	  0.000000	  0.286328	  0.000000	 -0.263142	  0.000000	  0.000000	  0.000000	  0.000000	  0.000000	  0.000000	  0.785105	  0.000000	 -0.342760	  0.000000	  0.000000	  0.000000
0.009500	  0.000000	  0.000000	  0.000000	  0.285612	  0.000000	 -0.262837	  0.000000	  0.000000	  0.000000	  0.000000	  0.000000	  0.000000	  0.787523	  0.000000	 -0.342716	  0.000000	  0.000000	  0.000000
0.010000	  0.000000	  0.000000	  0.000000	  0.284896	  0.000000	 -0.262532	  0.000000	  0.000000	  0.000000	  0.000000	  0.000000	  0.000000	  0.789941	  0.000000	 -0.342672	  0.000000	  0.000000	  0.000000
0.010500	  0.000000	  0.000000	  0.000000	  0.284227	  0.000000	 -0.262253	  0.000000	  0.000000	  0.000000	  0.000000	  0.000000	  0.000000	  0.792424	  0.000000	 -0.342671	  0.000000	  0.000000	  0.000000
0.011000	  0.000000	  0.000000	  0.000000	  0.283559	  0.000000	 -0.261975	  0.000000	  0.000000	  0.000000	  0.000000	  0.000000	  0.000000	  0.794906	  0.000000	 -0.342669	  0.000000	  0.000000	  0.000000
0.011500	  0.000000	  0.000000	  0.000000	  0.282890	  0.000000	 -0.261696	  0.000000	  0.000000	  0.000000	  0.000000	  0.000000	  0.000000	  0.797389	  0.000000	 -0.342668	  0.000000	  0.000000	  0.000000
0.012000	  0.000000	  0.000000	  0.000000	  0.282222	  0.000000	 -0.261418	  0.000000	  0.000000	  0.000000	  0.000000	  0.000000	  0.000000	  0.799871	  0.000000	 -0.342667	  0.000000	  0.000000	  0.000000
0.012500	  0.000000	  0.000000	  0.000000	  0.281553	  0.000000	 -0.261139	  0.000000	  0.000000	  0.000000	  0.000000	  0.000000	  0.000000	  0.802354	  0.000000	 -0.342666	  0.000000	  0.000000	  0.000000
0.013000	  0.000000	  0.000000	  0.000000	  0.280884	  0.000000	 -0.260860	  0.000000	  0.000000	  0.000000	  0.000000	  0.000000	  0.000000	  0.804837	  0.000000	 -0.342664	  0.000000	  0.000000	  0.000000
0.013500	  0.000000	  0.000000	  0.000000	  0.280216	  0.000000	 -0.260582	  0.000000	  0.000000	  0.000000	  0.000000	  0.000000	  0.000000	  0.807319	  0.000000	 -0.342663	  0.000000	  0.000000	  0.000000
0.014000	  0.000000	  0.000000	  0.000000	  0.279547	  0.000000	 -0.260303	  0.000000	  0.000000	  0.000000	  0.000000	  0.000000	  0.000000	  0.809802	  0.000000	 -0.342662	  0.000000	  0.000000	  0.000000
0.014500	  0.000000	  0.000000	  0.000000	  0.278879	  0.000000	 -0.260025	  0.000000	  0.000000	  0.000000	  0.000000	  0.000000	  0.000000	  0.812284	  0.000000	 -0.342660	  0.000000	  0.000000	  0.000000
0.015000	  0.000000	  0.000000	  0.000000	  0.278210	  0.000000	 -0.259746	  0.000000	  0.000000	  0.000000	  0.000000	  0.000000	  0.000000	  0.814767	  0.000000	 -0.342659	  0.000000	  0.000000	  0.000000
0.015500	  0.000000	  0.000000	  0.000000	  0.277659	  0.000000	 -0.259490	  0.000000	  0.000000	  0.000000	  0.000000	  0.000000	  0.000000	  0.817241	  0.000000	 -0.342780	  0.000000	  0.000000	  0.000000
0.016000	  0.000000	  0.000000	  0.000000	  0.277108	  0.000000	 -0.259235	  0.000000	  0.000000	  0.000000	  0.000000	  0.000000	  0.000000	  0.819714	  0.000000	 -0.342901	  0.000000	  0.000000	  0.000000
0.016500	  0.000000	  0.000000	  0.000000	  0.276557	  0.000000	 -0.258979	  0.000000	  0.000000	  0.000000	  0.000000	  0.000000	  0.000000	  0.822188	  0.000000	 -0.343022	  0.000000	  0.000000	  0.000000
0.017000	  0.000000	  0.000000	  0.000000	  0.276006	  0.000000	 -0.258723	  0.000000	  0.000000	  0.000000	  0.000000	  0.000000	  0.000000	  0.824662	  0.000000	 -0.343143	  0.000000	  0.000000	  0.000000
0.017500	  0.000000	  0.000000	  0.000000	  0.275454	  0.000000	 -0.258467	  0.000000	  0.000000	  0.000000	  0.000000	  0.000000	  0.000000	  0.827136	  0.000000	 -0.343264	  0.000000	  0.000000	  0.000000
0.018000	  0.000000	  0.000000	  0.000000	  0.274903	  0.000000	 -0.258212	  0.000000	  0.000000	  0.000000	  0.000000	  0.000000	  0.000000	  0.829609	  0.000000	 -0.343384	  0.000000	  0.000000	  0.000000
0.018500	  0.000000	  0.000000	  0.000000	  0.274352	  0.000000	 -0.257956	  0.000000	  0.000000	  0.000000	  0.000000	  0.000000	  0.000000	  0.832083	  0.000000	 -0.343505	  0.000000	  0.000000	  0.000000
0.019000	  0.000000	  0.000000	  0.000000	  0.273801	  0.000000	 -0.257700	  0.000000	  0.000000	  0.000000	  0.000000	  0.000000	  0.000000	  0.834557	  0.000000	 -0.343626	  0.000000	  0.000000	  0.000000
0.019500	  0.000000	  0.000000	  0.000000	  0.273250	  0.000000	 -0.257445	  0.000000	  0.000000	  0.000000	  0.000000	  0.000000	  0.000000	  0.837030	  0.000000	 -0.343747	  0.000000	  0.000000	  0.000000
0.020000	  0.000000	  0.000000	  0.000000	  0.272699	  0.000000	 -0.257189	  0.000000	  0.000000	  0.000000	  0.000000	  0.000000	  0.000000	  0.839504	  0.000000	 -0.343868	  0.000000	  0.000000	  0.000000
0.020500	  0.000000	  0.000000	  0.000000	  0.272204	  0.000000	 -0.256972	  0.000000	  0.000000	  0.000000	  0.000000	  0.000000	  0.000000	  0.842073	  0.000000	 -0.343944	  0.000000	  0.000000	  0.000000
0.021000	  0.000000	  0.000000	  0.000000	  0.271709	  0.000000	 -0.256756	  0.000000	  0.000000	  0.000000	  0.000000	  0.000000	  0.000000	  0.844641	  0.000000	 -0.344020	  0.000000	  0.000000	  0.000000
